<svg width="147" height="20" viewBox="0 0 147 20" fill="none" xmlns="http://www.w3.org/2000/svg">
<path d="M17.3464 5.92179C16.4246 2.15084 13.4916 0 9.24581 0C6.64805 0 4.46927 0.893853 2.68156 2.65363C0.893855 4.41341 0 6.87151 0 10C0 13.1285 0.893855 15.5866 2.68156 17.3464C4.46927 19.1061 6.64805 20 9.24581 20C13.4916 20 16.4246 17.8492 17.3464 14.0782L14.0782 13.2402C13.2123 15.5028 11.6201 16.648 9.24581 16.648C7.65363 16.648 6.31285 16.0894 5.2514 14.9441C4.21788 13.7989 3.68715 12.1508 3.68715 10C3.68715 7.84916 4.21788 6.20112 5.2514 5.05587C6.31285 3.91061 7.65363 3.35196 9.24581 3.35196C11.6201 3.35196 13.2123 4.49721 14.0782 6.75978L17.3464 5.92179Z" fill="#9C27B0"/>
<path d="M24.5773 1.06145C21.8678 2.43017 19.9404 5.64246 19.9404 10C19.9404 12.1788 20.3594 14.0503 21.2253 15.5866C22.9851 18.6872 25.7784 20 29.1583 20C30.8622 20 32.3706 19.6648 33.7393 18.9665C36.4488 17.5419 38.3762 14.3575 38.3762 10C38.3762 7.82123 37.9293 5.94972 37.0633 4.41341C35.3594 1.31285 32.5382 0 29.1583 0C27.4544 0 25.946 0.363127 24.5773 1.06145ZM33.0969 5.02793C34.1583 6.14525 34.689 7.7933 34.689 10C34.689 12.2067 34.1583 13.8547 33.0969 14.9721C32.0633 16.0894 30.7505 16.648 29.1583 16.648C27.5661 16.648 26.2533 16.0894 25.1918 14.9721C24.1583 13.8547 23.6276 12.2067 23.6276 10C23.6276 7.7933 24.1583 6.14525 25.1918 5.02793C26.2533 3.91061 27.5661 3.35196 29.1583 3.35196C30.7505 3.35196 32.0633 3.91061 33.0969 5.02793Z" fill="#9C27B0"/>
<path d="M56.1747 0.223463H52.1524L47.7669 14.6927L43.3814 0.223463H39.3591L45.9233 19.7765H49.6105L56.1747 0.223463Z" fill="#9C27B0"/>
<path d="M58.2939 0.223463V19.7765H61.9252V0.223463H58.2939Z" fill="#9C27B0"/>
<rect x="66.4963" width="79.8085" height="19.9521" fill="url(#paint0_linear)"/>
<path d="M77.2041 5.69969C76.406 4.00376 75.0692 3.16577 73.1737 3.16577C72.0764 3.16577 71.1785 3.52491 70.4403 4.26314C69.722 5.00136 69.3629 5.89921 69.3629 6.95667C69.323 9.5305 71.4778 10.588 73.1338 11.2863C74.311 11.7851 75.2089 12.4236 75.2089 13.2416C75.2089 14.4587 74.6103 15.0572 73.3932 15.0572C72.0764 15.0572 71.1586 14.1195 70.6199 12.224L68.5249 13.5409C68.7444 14.6382 69.303 15.576 70.1809 16.3342C71.0588 17.0724 72.1163 17.4515 73.3334 17.4515C76.0469 17.4515 77.8026 15.8154 77.8026 13.1019C77.8226 10.6877 75.6079 9.65021 73.9319 8.91198C72.7947 8.37327 71.837 7.71485 71.837 6.83696C71.837 6.09873 72.3956 5.56002 73.1737 5.56002C73.9519 5.56002 74.6103 6.05883 75.1091 7.03648L77.2041 5.69969Z" fill="white"/>
<path d="M82.9492 3.92395C81.0138 4.9016 79.6371 7.1961 79.6371 10.3086C79.6371 11.8649 79.9364 13.2017 80.5549 14.2991C81.8119 16.5137 83.8071 17.4515 86.2213 17.4515C87.4384 17.4515 88.5158 17.2121 89.4935 16.7133C91.4288 15.6957 92.8055 13.4212 92.8055 10.3086C92.8055 8.75236 92.4863 7.41557 91.8678 6.31821C90.6507 4.10352 88.6355 3.16577 86.2213 3.16577C85.0043 3.16577 83.9268 3.42515 82.9492 3.92395ZM89.0346 6.75715C89.7928 7.55524 90.1719 8.73241 90.1719 10.3086C90.1719 11.8848 89.7928 13.062 89.0346 13.8601C88.2964 14.6582 87.3586 15.0572 86.2213 15.0572C85.0841 15.0572 84.1463 14.6582 83.3881 13.8601C82.6499 13.062 82.2708 11.8848 82.2708 10.3086C82.2708 8.73241 82.6499 7.55524 83.3881 6.75715C84.1463 5.95907 85.0841 5.56002 86.2213 5.56002C87.3586 5.56002 88.2964 5.95907 89.0346 6.75715Z" fill="white"/>
<path d="M102.724 3.32539V12.0245C102.724 14.0397 101.846 15.0572 100.11 15.0572C98.374 15.0572 97.4962 14.0397 97.4962 12.0245V3.32539H94.9024V11.9846C94.9024 15.5959 96.9175 17.4515 100.11 17.4515C103.302 17.4515 105.317 15.5959 105.317 11.9846V3.32539H102.724Z" fill="white"/>
<path d="M117.11 7.29586C117.11 4.9016 115.574 3.32539 112.861 3.32539H107.773V17.2919H110.367V11.2663H111.723L115.474 17.2919H118.367L114.497 11.0469C116.173 10.5481 117.11 9.15141 117.11 7.29586ZM110.367 8.87208V5.71964H112.881C113.978 5.71964 114.517 6.2384 114.517 7.29586C114.517 8.35332 113.978 8.87208 112.881 8.87208H110.367Z" fill="white"/>
<path d="M131.6 7.39562C130.942 4.70208 128.847 3.16577 125.814 3.16577C123.959 3.16577 122.402 3.80424 121.126 5.06122C119.849 6.31821 119.21 8.07399 119.21 10.3086C119.21 12.5433 119.849 14.2991 121.126 15.556C122.402 16.813 123.959 17.4515 125.814 17.4515C128.847 17.4515 130.942 15.9152 131.6 13.2216L129.266 12.6231C128.647 14.2392 127.51 15.0572 125.814 15.0572C124.677 15.0572 123.719 14.6582 122.961 13.8402C122.223 13.0221 121.844 11.8449 121.844 10.3086C121.844 8.77232 122.223 7.59514 122.961 6.7771C123.719 5.95907 124.677 5.56002 125.814 5.56002C127.51 5.56002 128.647 6.37806 129.266 7.99418L131.6 7.39562Z" fill="white"/>
<path d="M133.882 17.2919H142.721V14.8976H136.476V11.0469H141.324V8.6526H136.476V5.71964H142.521V3.32539H133.882V17.2919Z" fill="white"/>
<defs>
<linearGradient id="paint0_linear" x1="66.4963" y1="9.93534" x2="146.305" y2="9.93533" gradientUnits="userSpaceOnUse">
<stop stop-color="#FFA726"/>
<stop offset="1" stop-color="#F57C00"/>
</linearGradient>
</defs>
</svg>
