<svg width="147" height="20" viewBox="0 0 147 20" fill="none" xmlns="http://www.w3.org/2000/svg">
<path d="M17.3464 5.92179C16.4246 2.15084 13.4916 0 9.24581 0C6.64805 0 4.46927 0.893853 2.68156 2.65363C0.893855 4.41341 0 6.87151 0 10C0 13.1285 0.893855 15.5866 2.68156 17.3464C4.46927 19.1061 6.64805 20 9.24581 20C13.4916 20 16.4246 17.8492 17.3464 14.0782L14.0782 13.2402C13.2123 15.5028 11.6201 16.648 9.24581 16.648C7.65363 16.648 6.31285 16.0894 5.2514 14.9441C4.21788 13.7989 3.68715 12.1508 3.68715 10C3.68715 7.84916 4.21788 6.20112 5.2514 5.05587C6.31285 3.91061 7.65363 3.35196 9.24581 3.35196C11.6201 3.35196 13.2123 4.49721 14.0782 6.75978L17.3464 5.92179Z" fill="white"/>
<path d="M24.5773 1.06145C21.8678 2.43017 19.9404 5.64246 19.9404 10C19.9404 12.1788 20.3594 14.0503 21.2253 15.5866C22.9851 18.6872 25.7784 20 29.1583 20C30.8622 20 32.3706 19.6648 33.7393 18.9665C36.4488 17.5419 38.3762 14.3575 38.3762 10C38.3762 7.82123 37.9293 5.94972 37.0633 4.41341C35.3594 1.31285 32.5382 0 29.1583 0C27.4544 0 25.946 0.363127 24.5773 1.06145ZM33.0969 5.02793C34.1583 6.14525 34.689 7.7933 34.689 10C34.689 12.2067 34.1583 13.8547 33.0969 14.9721C32.0633 16.0894 30.7505 16.648 29.1583 16.648C27.5661 16.648 26.2533 16.0894 25.1918 14.9721C24.1583 13.8547 23.6276 12.2067 23.6276 10C23.6276 7.7933 24.1583 6.14525 25.1918 5.02793C26.2533 3.91061 27.5661 3.35196 29.1583 3.35196C30.7505 3.35196 32.0633 3.91061 33.0969 5.02793Z" fill="white"/>
<path d="M56.1747 0.223463H52.1524L47.7669 14.6927L43.3814 0.223463H39.3591L45.9233 19.7765H49.6105L56.1747 0.223463Z" fill="white"/>
<path d="M58.2939 0.223463V19.7765H61.9252V0.223463H58.2939Z" fill="white"/>
<rect x="66.4964" width="79.8085" height="19.9521" fill="url(#paint0_linear)"/>
<path d="M77.2041 5.69966C76.406 4.00373 75.0692 3.16574 73.1737 3.16574C72.0764 3.16574 71.1785 3.52488 70.4403 4.26311C69.722 5.00133 69.3629 5.89918 69.3629 6.95664C69.323 9.53047 71.4778 10.5879 73.1338 11.2863C74.311 11.7851 75.2089 12.4235 75.2089 13.2416C75.2089 14.4586 74.6103 15.0572 73.3932 15.0572C72.0764 15.0572 71.1586 14.1195 70.6199 12.224L68.5249 13.5408C68.7444 14.6382 69.303 15.576 70.1809 16.3341C71.0588 17.0724 72.1163 17.4515 73.3334 17.4515C76.0469 17.4515 77.8026 15.8154 77.8026 13.1019C77.8226 10.6877 75.6079 9.65018 73.9319 8.91195C72.7947 8.37324 71.837 7.71482 71.837 6.83693C71.837 6.0987 72.3956 5.55999 73.1737 5.55999C73.9519 5.55999 74.6103 6.0588 75.1091 7.03645L77.2041 5.69966Z" fill="white"/>
<path d="M82.9492 3.92392C81.0138 4.90157 79.6371 7.19607 79.6371 10.3086C79.6371 11.8649 79.9364 13.2017 80.5549 14.299C81.8119 16.5137 83.8071 17.4515 86.2213 17.4515C87.4384 17.4515 88.5158 17.212 89.4935 16.7132C91.4288 15.6957 92.8055 13.4211 92.8055 10.3086C92.8055 8.75233 92.4863 7.41554 91.8678 6.31818C90.6507 4.10349 88.6355 3.16574 86.2213 3.16574C85.0043 3.16574 83.9268 3.42512 82.9492 3.92392ZM89.0346 6.75712C89.7928 7.55521 90.1719 8.73238 90.1719 10.3086C90.1719 11.8848 89.7928 13.062 89.0346 13.8601C88.2964 14.6582 87.3586 15.0572 86.2213 15.0572C85.0841 15.0572 84.1463 14.6582 83.3881 13.8601C82.6499 13.062 82.2708 11.8848 82.2708 10.3086C82.2708 8.73238 82.6499 7.55521 83.3881 6.75712C84.1463 5.95904 85.0841 5.55999 86.2213 5.55999C87.3586 5.55999 88.2964 5.95904 89.0346 6.75712Z" fill="white"/>
<path d="M102.724 3.32536V12.0245C102.724 14.0396 101.846 15.0572 100.11 15.0572C98.374 15.0572 97.4962 14.0396 97.4962 12.0245V3.32536H94.9024V11.9846C94.9024 15.5959 96.9175 17.4515 100.11 17.4515C103.302 17.4515 105.317 15.5959 105.317 11.9846V3.32536H102.724Z" fill="white"/>
<path d="M117.11 7.29583C117.11 4.90157 115.574 3.32536 112.861 3.32536H107.773V17.2918H110.367V11.2663H111.723L115.474 17.2918H118.367L114.497 11.0468C116.173 10.548 117.11 9.15137 117.11 7.29583ZM110.367 8.87205V5.71961H112.881C113.978 5.71961 114.517 6.23837 114.517 7.29583C114.517 8.35329 113.978 8.87205 112.881 8.87205H110.367Z" fill="white"/>
<path d="M131.6 7.39559C130.942 4.70205 128.847 3.16574 125.814 3.16574C123.959 3.16574 122.402 3.80421 121.126 5.06119C119.849 6.31817 119.21 8.07396 119.21 10.3086C119.21 12.5432 119.849 14.299 121.126 15.556C122.402 16.813 123.959 17.4515 125.814 17.4515C128.847 17.4515 130.942 15.9151 131.6 13.2216L129.266 12.623C128.647 14.2392 127.51 15.0572 125.814 15.0572C124.677 15.0572 123.719 14.6582 122.961 13.8401C122.223 13.0221 121.844 11.8449 121.844 10.3086C121.844 8.77229 122.223 7.59511 122.961 6.77707C123.719 5.95904 124.677 5.55999 125.814 5.55999C127.51 5.55999 128.647 6.37803 129.266 7.99415L131.6 7.39559Z" fill="white"/>
<path d="M133.882 17.2918H142.721V14.8976H136.476V11.0468H141.324V8.65257H136.476V5.71961H142.521V3.32536H133.882V17.2918Z" fill="white"/>
<defs>
<linearGradient id="paint0_linear" x1="66.4964" y1="9.93534" x2="146.305" y2="9.93533" gradientUnits="userSpaceOnUse">
<stop stop-color="#FFA726"/>
<stop offset="1" stop-color="#F57C00"/>
</linearGradient>
</defs>
</svg>
